<svg xmlns="http://www.w3.org/2000/svg" viewBox="0 0 72 72" preserveAspectRatio="none" focusable="false" class="asf-icon__item" style="--width: 1.75rem; --height: 1.75rem;"><g><path fill="#1d1d1b" transform="translate(-14 -14)" d="M86,50A36,36,0,1,1,50,14,36,36,0,0,1,86,50"></path> <path fill="#fff" transform="translate(-14 -14)" d="M44.23,63.13h-7a4.67,4.67,0,0,1-4-7l2.3-4a.89.89,0,0,1,1.21-.32l.72.41a.81.81,0,0,0,1.21-.7V43.64a.81.81,0,0,0-1.21-.7L30.6,46.88a.81.81,0,0,0,0,1.4l.72.41a.88.88,0,0,1,.32,1.21l-2.31,4a9.13,9.13,0,0,0,7.91,13.69H44.3a2.23,2.23,0,0,0,2.23-2.27,2.27,2.27,0,0,0-2.3-2.19" class="cls-4"></path> <path fill="none" transform="translate(-14 -14)" d="M44.23,63.13h-7a4.67,4.67,0,0,1-4-7l2.3-4a.89.89,0,0,1,1.21-.32l.72.41a.81.81,0,0,0,1.21-.7V43.64a.81.81,0,0,0-1.21-.7L30.6,46.88a.81.81,0,0,0,0,1.4l.72.41a.88.88,0,0,1,.32,1.21l-2.31,4a9.13,9.13,0,0,0,7.91,13.69H44.3a2.23,2.23,0,0,0,2.23-2.27A2.27,2.27,0,0,0,44.23,63.13Z" class="cls-5"></path> <path fill="#fff" transform="translate(-14 -14)" d="M72,53.9l-3.53-6.12A2.23,2.23,0,0,0,64.55,50l3.53,6.12a4.67,4.67,0,0,1-4,7H59.43a.89.89,0,0,1-.89-.89v-.82a.81.81,0,0,0-1.21-.7L50.5,64.66a.82.82,0,0,0,0,1.4L57.33,70a.81.81,0,0,0,1.21-.7v-.82a.89.89,0,0,1,.89-.89H64A9.13,9.13,0,0,0,72,53.9" class="cls-4"></path> <path fill="none" transform="translate(-14 -14)" d="M72,53.9l-3.53-6.12A2.23,2.23,0,0,0,64.55,50l3.53,6.12a4.67,4.67,0,0,1-4,7H59.43a.89.89,0,0,1-.89-.89v-.82a.81.81,0,0,0-1.21-.7L50.5,64.66a.82.82,0,0,0,0,1.4L57.33,70a.81.81,0,0,0,1.21-.7v-.82a.89.89,0,0,1,.89-.89H64A9.13,9.13,0,0,0,72,53.9Z" class="cls-5"></path> <path fill="#fff" transform="translate(-14 -14)" d="M62.07,35a.9.9,0,0,1-1.22-.33l-2.3-4a9.13,9.13,0,0,0-15.82,0L39.2,36.8A2.24,2.24,0,0,0,40,39.85a2.22,2.22,0,0,0,3-.82l3.54-6.11a4.67,4.67,0,0,1,8.09,0l2.3,4a.88.88,0,0,1-.32,1.21l-.72.42a.81.81,0,0,0,0,1.39l6.83,3.94A.81.81,0,0,0,64,43.18V35.29a.81.81,0,0,0-1.21-.7Z" class="cls-4"></path> <path fill="none" transform="translate(-14 -14)" d="M62.07,35a.9.9,0,0,1-1.22-.33l-2.3-4a9.13,9.13,0,0,0-15.82,0L39.2,36.8A2.24,2.24,0,0,0,40,39.85a2.22,2.22,0,0,0,3-.82l3.54-6.11a4.67,4.67,0,0,1,8.09,0l2.3,4a.88.88,0,0,1-.32,1.21l-.72.42a.81.81,0,0,0,0,1.39l6.83,3.94A.81.81,0,0,0,64,43.18V35.29a.81.81,0,0,0-1.21-.7Z" class="cls-5"></path> <path fill="#fff" transform="translate(-14 -14)" d="M51,54.34h0s4.23-2.62,4.84-5.21S53.53,44.42,51,46.67c-2.55-2.25-5.45-.15-4.84,2.46S51,54.34,51,54.34" class="cls-4"></path></g></svg>