<svg xmlns="http://www.w3.org/2000/svg" viewBox="0 0 595.3 841.9" preserveAspectRatio="xMidYMid slice" focusable="false" class="asf-icon__item" style="--width: 1.5rem; --height: 1.5rem;"><g><path fill="currentColor" d="M508.6,253.9L508.6,253.9l-25.9,0l-9,51.2c-5.7-1.5-9.6-5.7-15.5-12.5c-7.9-9.1-18.8-21.7-39.5-21.7
		c-20.7,0-31.6,12.5-39.5,21.7c-7.5,8.6-11.8,13.1-20.8,13.1c-9,0-13.3-4.5-20.8-13.1c-7.9-9.1-18.8-21.7-39.5-21.7
		c-20.7,0-31.6,12.5-39.5,21.7c-7.5,8.6-11.8,13.1-20.8,13.1c-9,0-13.3-4.5-20.8-13.1c-7.9-9.1-18.8-21.7-39.5-21.7
		c-20.7,0-31.6,12.5-39.5,21.7c-6.3,7.3-10.4,11.6-16.8,12.8l-9-51.5H86.2l0,0l49.6,283.5H459L508.6,253.9L508.6,253.9z
		M469.5,329.4l-31.9,182.4H157.3l-31.9-182.1c15.5-2.8,24.5-13.1,31.3-21c7.5-8.6,11.8-13.1,20.8-13.1c9,0,13.3,4.5,20.8,13.1
		c7.9,9.1,18.8,21.7,39.5,21.7c20.7,0,31.6-12.5,39.5-21.7c7.5-8.6,11.8-13.1,20.8-13.1c9,0,13.3,4.5,20.8,13.1
		c7.9,9.1,18.8,21.7,39.5,21.7c20.7,0,31.6-12.5,39.5-21.7c7.5-8.6,11.8-13.1,20.8-13.1c9,0,13.3,4.5,20.8,13.1
		C446.2,316.4,454.8,326.3,469.5,329.4L469.5,329.4z M376.2,422.5c0-23.9-6.1-54.6-36.3-54.6c-30.2,0-36.3,30.8-36.3,54.6
		c0,23.8,6.1,54.6,36.3,54.6C370,477.1,376.2,446.3,376.2,422.5L376.2,422.5z M359.1,422.5c0,21.9-4.2,40.3-19.2,40.3
		s-19.2-18.5-19.2-40.3c0-21.9,4.2-40.4,19.2-40.4S359.1,400.6,359.1,422.5L359.1,422.5z M273,418.7v-0.3
		c10.1-3.6,14.9-12,14.9-22.5c0-18.6-16.8-28-33.2-28c-21.1,0-33.9,15.3-34.8,35.7H237c-0.3-10.8,5.6-21.5,17.4-21.5
		c9.5,0,16.3,6,16.3,14.9c0,12.9-11.8,16.9-23.2,16.5v12.8c13.5-0.6,27.4,1.5,27.4,17.8c0,12-8.7,18.8-20.1,18.8
		c-13.4,0-20.3-9.6-19.8-22.4h-17.1c0.4,21.9,12.6,36.6,36.9,36.6c20.1,0,37.2-12.3,37.2-32.1C292,431.5,284.8,421.1,273,418.7
		L273,418.7z M460.4,562.9H135.8v25.5h324.6V562.9L460.4,562.9z"></path></g></svg>