<svg xmlns="http://www.w3.org/2000/svg" viewBox="0 0 595.3 841.9" preserveAspectRatio="xMidYMid slice" focusable="false" class="asf-icon__item" style="--width: 1.5rem; --height: 1.5rem;"><g><path fill="currentColor" d="M439.5,562.4V278.9H156v283.5H439.5L439.5,562.4z M414,536.8H181.5V304.4H414V536.8L414,536.8z M181.5,420.6
		c0,64.1,52.1,116.2,116.2,116.2S414,484.7,414,420.6s-52.1-116.2-116.2-116.2S181.5,356.5,181.5,420.6L181.5,420.6z M207,420.6
		c0-50,40.7-90.7,90.7-90.7s90.7,40.7,90.7,90.7c0,50-40.7,90.7-90.7,90.7S207,470.6,207,420.6L207,420.6z M280.7,420.6
		c0,9.4,7.6,17,17,17s17-7.6,17-17c0-9.4-7.6-17-17-17S280.7,411.2,280.7,420.6L280.7,420.6z"></path></g></svg>