<svg xmlns="http://www.w3.org/2000/svg" viewBox="0 0 595.3 841.9" preserveAspectRatio="xMidYMid slice" focusable="false" class="asf-icon__item" style="--width: 1.5rem; --height: 1.5rem;"><g><path fill="currentColor" d="M508.4,562.4l-76.5-283.5H190.9v25.5h221.4l26.8,99.2H240.5c-51.1,0-69.2,22.3-89.3,53.9c-7.8,12.3-36.7,58.8-53.1,85.4
		L86,562.4H508.4L508.4,562.4z M446,429.1l29.1,107.7H131.8c15.9-25.6,34.8-56.1,40.9-65.7c17.6-27.6,28.6-42,67.8-42H446L446,429.1
		z M359.3,483c0-9.4-7.6-17-17-17c-9.4,0-17,7.6-17,17s7.6,17,17,17C351.7,500,359.3,492.4,359.3,483L359.3,483z M299.8,483
		c0-9.4-7.6-17-17-17c-9.4,0-17,7.6-17,17s7.6,17,17,17C292.2,500,299.8,492.4,299.8,483L299.8,483z"></path></g></svg>